<svg width="46" height="66" viewBox="0 0 46 66" fill="none" xmlns="http://www.w3.org/2000/svg">
<path d="M45.3294 58.5294L40.3904 48.3318C39.3274 46.153 37.9532 44.5673 35.5809 45.5342L30.9011 47.2617C27.1547 48.9893 25.288 47.2617 23.4083 44.6576L14.9821 25.5903C13.9191 23.4115 14.4765 21.3617 16.8488 20.3948L23.3953 17.7906C25.7676 16.8108 25.3917 14.7739 24.3287 12.5951L18.7155 2.20418C17.6525 0.0254354 15.4747 -0.503137 13.1024 0.463764C8.35779 2.41046 4.42987 5.46586 1.87608 9.99096C-1.23514 15.5216 0.320473 23.2182 0.942717 26.454C1.56496 29.6899 3.74281 35.3624 6.55587 41.1767C9.36893 47.0039 11.832 51.5806 14.0487 54.1719C16.2525 56.7631 21.5416 63.8538 28.0881 65.4395C33.4549 66.7287 39.2496 65.6457 43.9942 63.699C46.3795 62.7708 46.3795 60.721 45.3294 58.5294Z" fill="#111111"/>
</svg>
